<svg width="264" height="64" viewBox="0 0 264 64" fill="none" xmlns="http://www.w3.org/2000/svg">
  <path d="m185.62 20.327-3.097 5.164v3.188h-1.585v-3.188l-3.01-5.164h1.835l1.261 2.203q.105.183.355.679l.178.336.171.337h.042l.178-.337.177-.336q.227-.453.362-.68l1.272-2.202zm4.293 1.285q-1.597 0-1.866.41t-.269 2.839q0 1.8.315 2.166.314.367 1.857.367 1.474 0 1.768-.413.294-.412.294-2.506 0-2.099-.279-2.481-.278-.382-1.82-.382m.122-1.359q2.277 0 2.931.756.655.756.655 3.38 0 2.871-.657 3.617-.66.747-3.186.746-2.275 0-2.943-.737-.667-.737-.667-3.246 0-2.985.655-3.75.654-.766 3.212-.766m10.28.074h1.585v5.556q0 1.743-.67 2.306-.67.564-2.738.563-2.185 0-2.864-.532-.68-.532-.679-2.246v-5.647h1.585v5.647q0 .924.33 1.172t1.554.248q1.254 0 1.576-.251.321-.25.321-1.23zm4.884 4.203h2.276q.812 0 1.079-.29t.266-1.166q.001-.893-.229-1.153t-1.007-.26h-2.385zm-1.586 4.15v-8.353h4.118q1.536 0 2.117.532.583.532.582 1.927 0 1.267-.291 1.732t-1.19.643v.055q1.389.086 1.388 1.621v1.842h-1.584v-1.524q0-1.29-1.273-1.29h-2.281v2.814zm17.085-8.353h1.584v5.556q-.001 1.743-.671 2.306-.671.564-2.737.563-2.186 0-2.864-.532-.68-.532-.68-2.246v-5.647h1.585v5.647q0 .924.331 1.172.328.248 1.554.248 1.253 0 1.576-.251.32-.25.322-1.23zm11.049 0v8.352h-2.686l-2.385-4.583a25 25 0 0 1-.559-1.2l-.268-.599-.262-.6h-.062l.025.551.016.545.013 1.095v4.791h-1.585v-8.352h2.686l2.174 4.234q.287.563.665 1.364l.32.68.317.685h.055l-.018-.538-.018-.539-.013-1.077v-4.81zm3.304 1.333v2.253h3.745v1.333h-3.745v3.433h-1.584v-8.352h5.531v1.334zm9.851 4.247-1.443-4.35-1.419 4.35zm.368 1.169h-3.605l-.52 1.603h-1.676l2.778-8.352h2.381l2.821 8.352h-1.646zm4.734-6.749v8.352h-1.584v-8.352zm3.317 4.203h2.276q.813 0 1.079-.29.267-.29.266-1.166.001-.893-.229-1.153-.231-.26-1.005-.26h-2.387zm-1.585 4.15v-8.353h4.117q1.536 0 2.117.532.582.532.581 1.927 0 1.267-.29 1.732t-1.19.643v.055q1.391.086 1.39 1.621v1.842h-1.586v-1.524q0-1.29-1.272-1.29h-2.282v2.814zm-68.351 12.707-1.444-4.35-1.42 4.35zm.367 1.169h-3.604l-.52 1.603h-1.677l2.778-8.352h2.381l2.82 8.352h-1.645zm4.735.269h2.258q1.139 0 1.471-.523.334-.523.334-2.31 0-1.848-.3-2.35-.3-.501-1.407-.501h-2.356zm-1.585 1.334v-8.352h4.106q1.75 0 2.451.764.7.765.7 2.68 0 3.127-.563 4.018-.562.89-2.539.89zm14.014-8.352h1.676l-2.692 8.352h-2.435l-2.668-8.352h1.646l1.567 4.73q.22.679.654 2.276h.043l.159-.57q.294-1.064.502-1.7zm7.304 5.58-1.443-4.35-1.421 4.35zm.369 1.169h-3.605l-.52 1.603h-1.677l2.778-8.352h2.381l2.821 8.352h-1.648zm10.904-6.749v8.352h-2.686l-2.387-4.583a25 25 0 0 1-.557-1.2l-.27-.599-.262-.6h-.062l.025.551.018.545.013 1.095v4.79h-1.585v-8.351h2.686l2.172 4.234q.287.563.668 1.365l.317.679.317.685h.057l-.02-.539-.016-.538-.013-1.077v-4.81zm5.048 1.419v6.933h-1.587v-6.933h-2.409v-1.42h6.491v1.42zm8.234 4.161-1.443-4.35-1.419 4.35zm.368 1.169h-3.605l-.52 1.603h-1.676l2.778-8.352h2.381l2.821 8.352h-1.646zm6.436-2.839h3.677l.025 1.658q0 1.811-.682 2.334-.683.523-3.044.523-2.167 0-2.87-.697-.703-.698-.703-2.845 0-2.742.281-3.464.349-.88 1.058-1.187.71-.306 2.412-.306 2.226 0 2.874.475.65.474.649 2.101h-1.603q-.042-.82-.358-1.018-.314-.2-1.581-.2-1.377 0-1.748.343-.368.343-.368 1.61l-.009.838.013 1.07q0 1.243.368 1.583.366.34 1.701.34 1.297 0 1.648-.288.353-.288.353-1.359l.006-.343h-2.099zm6.486-2.577v2.154h3.916v1.17h-3.916v2.361h4.168v1.334h-5.753v-8.352h5.716v1.334zm6.865-.738v2.81h-.643v-2.81h-.978v-.576h2.632v.576zm5.396-.576v3.386h-.642v-1.846q0-.22.012-.5l.012-.254.014-.25h-.02l-.078.235-.073.236q-.104.318-.162.469l-.743 1.91h-.586l-.751-1.895a7 7 0 0 1-.164-.469l-.078-.236-.075-.233h-.021l.012.246.013.248q.015.288.014.493v1.846h-.643v-3.386h1.048l.604 1.568q.062.163.164.468l.076.236.076.233h.022l.072-.233.075-.233q.09-.295.158-.466l.596-1.573zm-94.31 21.442h-.778V7.285h.778z" fill="#DD511E"/>
  <path d="M65.674 44.393v5.656h-1.293v-5.657h-1.967v-1.158h5.297v1.158zm6.404-.071v1.758h3.195v.953h-3.195v1.928h3.4v1.088h-4.693v-6.815h4.663v1.088zm11.129 3.296h1.298v.234q0 1.423-.52 1.84-.517.417-2.296.417-2.016 0-2.48-.659-.465-.66-.465-3.525 0-1.688.629-2.219.63-.532 2.631-.532 1.458 0 1.947.437t.49 1.735l.004.155h-1.298v-.175q0-.669-.252-.856t-1.15-.187q-1.204 0-1.446.294-.242.296-.242 1.748 0 1.957.217 2.316.218.36 1.406.36.963 0 1.25-.2t.287-.879zm10.449-4.384v6.815h-1.292v-2.946h-3.196v2.946h-1.293v-6.815h1.293v2.781h3.196v-2.78zm10.08 0v6.815h-2.192l-1.947-3.74a20 20 0 0 1-.454-.978l-.22-.49-.215-.489h-.05l.02.45.015.444.01.894v3.909H97.41v-6.815h2.192l1.772 3.455q.235.46.544 1.113l.26.554.26.56h.045l-.016-.44-.014-.44-.01-.878v-3.924zm6.485 1.049q-1.303 0-1.522.334t-.22 2.316q0 1.469.257 1.768.257.3 1.515.3 1.204 0 1.443-.337.24-.338.24-2.045 0-1.712-.227-2.024-.228-.312-1.486-.312m.1-1.109q1.858 0 2.392.617.534.616.534 2.758 0 2.342-.537 2.95-.536.61-2.599.61-1.857 0-2.401-.602-.544-.601-.544-2.648 0-2.437.534-3.06.534-.625 2.621-.625m7.648.06v5.657h3.195v1.158h-4.488v-6.815zm9.137 1.049q-1.302 0-1.523.334-.219.334-.219 2.316 0 1.469.257 1.768.257.3 1.515.3 1.203 0 1.443-.337.24-.338.24-2.045 0-1.712-.228-2.024-.226-.312-1.485-.312m.1-1.109q1.857 0 2.391.617.535.616.535 2.758 0 2.342-.537 2.95-.537.61-2.599.61-1.857 0-2.401-.602-.544-.601-.544-2.648 0-2.437.534-3.06.534-.625 2.621-.625m9.036 3.251h3.001l.019 1.353q0 1.477-.556 1.904t-2.484.427q-1.767 0-2.341-.57-.574-.569-.574-2.32 0-2.238.229-2.827.285-.718.864-.968.58-.25 1.967-.25 1.817 0 2.346.387t.53 1.715h-1.308q-.036-.669-.292-.831-.258-.162-1.291-.162-1.124 0-1.425.28-.303.279-.302 1.312l-.005.684.01.874q0 1.014.299 1.29.3.278 1.388.278 1.059 0 1.345-.235.288-.235.288-1.108l.005-.28h-1.713zm12.131-3.191-2.526 4.214v2.601h-1.293v-2.601l-2.456-4.214h1.497l1.029 1.798q.085.15.289.554l.145.274.14.275h.035l.145-.275.144-.274q.185-.37.295-.554l1.038-1.798zM86.625 24.36c0-6.333-1.97-7.484-5.605-7.484H65.477v17.088h15.058c3.606 0 6.09-.788 6.09-7.363zm-24.117-9.908h17.724c7.362 0 9.362 2.303 9.362 10.968 0 8.059-2 10.968-9.453 10.968H62.508zm43.307 2.424-7.362 12.452h14.725zm-1.848-2.424h3.696l13.028 21.936h-3.363l-2.726-4.636H97.029l-2.727 4.636H90.94zm19.579 15.028h2.787v1.545c0 2.151 1.151 3.181 4.848 3.181h9.21c4.303 0 5.575-.909 5.575-4.06 0-2.757-1.091-3.454-4.787-3.454h-5.635c-9.059 0-12.028-.545-12.028-6.362 0-5 2.969-6.12 9.089-6.12h6.393c7.362 0 9.21 1.878 9.21 5.786v.758h-2.787c-.061-3.484-.425-4.12-8.211-4.12h-3.151c-5.726 0-7.756.302-7.756 3.908 0 2.605.818 3.484 5.453 3.484h8.787c5.787 0 8.211 1.666 8.211 5.393v1.424c0 5.393-4.424 5.787-8.817 5.787h-8.241c-4.333 0-8.15-.758-8.15-5.545z" fill="#3A393C"/>
  <path d="M33.333 30.024h-3.798v3.822h3.798zm18.303.382c-.084-1.194-.242-2.383-.532-3.547-1.356-5.463-5.131-10.206-10.053-12.885a20.35 20.35 0 0 0-8.067-2.38V6.225h-3.08v5.362c-1.927.13-3.842.505-5.675 1.177-5.127 1.874-9.288 5.827-11.53 10.79-.978 2.164-1.543 4.49-1.736 6.852H5.447v3.082h5.523c.44 5.25 2.835 10.203 6.8 13.728 3.376 3 7.68 4.743 12.134 5.051v5.304h3.08v-5.332c.283-.024.566-.025.85-.06 5.72-.712 10.824-3.82 14.17-8.493 2.143-2.993 3.366-6.556 3.646-10.198h5.012v-3.082zM22.02 16.252c2.425-1.448 5.134-2.247 7.885-2.454v3.964a14.53 14.53 0 0 0-9.567 5.073c-1.81 2.154-2.867 4.789-3.19 7.57h-3.993c.47-5.843 3.846-11.156 8.865-14.153m7.885 33.833a18 18 0 0 1-2.581-.37c-5.662-1.252-10.466-5.299-12.765-10.598-.774-1.78-1.215-3.698-1.385-5.63h3.99c.574 4.747 3.485 9.051 7.815 11.216a13.8 13.8 0 0 0 4.926 1.392zm0-9.222v2.988c-2.78-.342-5.45-1.623-7.43-3.741-1.652-1.77-2.713-4.035-3.094-6.413-.011-.07-.011-.14-.02-.21h2.798v-3.081h-2.792c.667-5.318 4.995-9.704 10.33-10.418.069-.01.139-.01.208-.019v2.962h3.08v-2.919c4.365.637 8.17 3.667 9.695 7.956.284.8.463 1.618.565 2.438h-3.293v3.082h3.27c-.474 3.423-2.404 6.612-5.395 8.572a11.6 11.6 0 0 1-4.842 1.781v-2.978zm13.944 4.276c-2.967 2.84-6.84 4.533-10.864 4.915v-4.01a14.5 14.5 0 0 0 7.116-2.92c3.05-2.369 4.917-5.898 5.336-9.636h4.02a18.5 18.5 0 0 1-5.608 11.651m1.602-14.733a14 14 0 0 0-.203-1.374c-1.122-5.474-5.441-9.78-10.86-11.014a13 13 0 0 0-1.403-.233V13.81a18.4 18.4 0 0 1 6.242 1.7c5.258 2.5 9 7.542 10.028 13.251.1.547.162 1.096.208 1.645z" fill="#DD511E"/>
</svg>
